<svg width="18" height="18" fill="none" xmlns="http://www.w3.org/2000/svg">
  <g clip-path="url(#clip0)">
    <path d="M17.8717 4.43517c-.1004-.11535-.2456-.18126-.3981-.18126H4.10245l-.38057-2.92732C3.5957.557719 2.93909 0 2.16045 0H.52832C.23684 0 .00097656.235863.00097656.527344c0 .29148.23586344.527346.52734344.527346h1.63213c.25956 0 .47841.1859.51806.42588l.43619 3.34958c.00154.01392.00309.02728.00566.04068l.9831 7.49987c.02665.1626.0893.3096.1606.4502-.6172.2158-1.0639.7977-1.0639 1.4877 0 .8724.70966 1.575 1.58203 1.575h.62448c-.0591.1658-.09714.3486-.09714.5344 0 .8723.70967 1.582 1.58204 1.582.87236 0 1.58203-.7097 1.58203-1.582 0-.1858-.03804-.3686-.09714-.5344H11.77c-.0591.1658-.0972.3486-.0972.5344 0 .8723.7097 1.582 1.582 1.582.8724 0 1.5821-.7097 1.5821-1.582 0-.1858-.0381-.3616-.0972-.5274h1.6792c.2915 0 .5274-.2358.5274-.5273s-.2359-.5274-.5274-.5274H4.78219c-.29095 0-.52734-.2364-.52734-.5273 0-.291.23642-.5274.57526-.5294l3.20417-.2915 7.62092-.6896c.7169-.0649 1.2998-.6061 1.4198-1.3291l.9208-6.61463c.0211-.15141-.0242-.30385-.1241-.4192zM5.71228 12.6395c-.28065.0309-.52372-.1679-.56598-.4233l-.62711-4.79823h1.88845l.43555 5.11873-1.13091.1028zm4.37852-.3948l-1.95952.1749h-.00014l-.03076.0029-.20714.0188-.42736-5.02333h2.62492v4.82673zm3.204-.2912l-2.1493.1954V7.41797h2.5836l-.4343 4.53553zm2.7379-.6442c-.0396.2364-.2338.4166-.4728.4383l-1.1965.1087.4249-4.43833h1.7841l-.5397 3.89133z" fill="#000"/>
  </g>
  <defs>
    <clipPath id="clip0">
      <path fill="#fff" d="M0 0h18v18H0z"/>
    </clipPath>
  </defs>
</svg>