<svg width="181" height="41" fill="none" xmlns="http://www.w3.org/2000/svg">
  <path d="M140.158 40.9009h-6.341V12.3971h6.341v28.5038zM13.7624 18.2415c-.9803-.0135-1.9526.1801-2.8541.5682-.9016.3882-1.7125.9623-2.38053 1.6853-1.42539 1.4859-2.13809 3.5414-2.13809 6.1416 0 2.6003.7127 4.7053 2.16266 6.2159.67832.7317 1.50096 1.3123 2.41516 1.7047.9142.3923 1.8997.5877 2.8932.5736 1.8677 0 3.3669-.52 4.4973-1.5354 1.051-.9235 1.8255-2.1242 2.2364-3.467l5.6033 2.0555c-.7373 2.4021-2.1627 4.4823-4.2762 6.2158C19.808 40.1332 17.1293 41 13.8607 41c-3.93212 0-7.22526-1.362-9.87944-4.1109C1.32709 34.1403 0 30.7228 0 26.6366c0-4.1356 1.30251-7.5531 3.93211-10.2524 2.6296-2.6994 5.87359-4.0614 9.78109-4.0614 3.3423 0 6.0702.8667 8.1837 2.6002 2.0038 1.5869 3.4437 3.7851 4.1042 6.2655l-5.7262 2.1049c-.3437-1.3711-1.0785-2.6108-2.1135-3.566-1.0788-.9906-2.5288-1.4859-4.399-1.4859zM36.7185 32.7782c.7066.7204 1.5476 1.2929 2.4746 1.6843.9271.3914 1.9218.5941 2.927.5964 1.0051.0023 2.0008-.1958 2.9296-.583.9288-.3872 1.7724-.9557 2.4822-1.6729 1.4745-1.5107 2.2118-3.5909 2.2118-6.2902 0-2.6498-.7373-4.7052-2.2118-6.1911-1.4427-1.4284-3.3842-2.2287-5.4067-2.2287s-3.964.8003-5.4067 2.2287c-1.4745 1.4859-2.2118 3.5413-2.2118 6.1911 0 2.6498.7373 4.7548 2.2118 6.2654zm5.4067-20.4554c4.1041 0 7.4956 1.3373 10.1498 4.0118 2.6541 2.6746 4.0058 6.0673 4.0058 10.203 0 4.1356-1.3271 7.5284-4.0058 10.2277-2.6788 2.6993-6.0457 4.0366-10.1498 4.0366-4.055 0-7.4219-1.3373-10.1006-4.0366-2.6788-2.6993-4.0058-6.1168-4.0058-10.2277 0-4.1109 1.327-7.5037 4.0058-10.203 2.6787-2.6993 6.021-4.0118 10.1006-4.0118zM72.8202 12.4961v6.5131c-.6914-.1069-1.3894-.1649-2.0889-.1734-4.8168 0-7.2007 2.3774-7.2007 7.6522v14.3139H57.141V12.3971h6.2176v4.5566c.6113-1.4342 1.6734-2.6263 3.0228-3.3927 1.4393-.8412 3.0796-1.2694 4.7431-1.2382.5699-.0049 1.1385.0532 1.6957.1733zM81.5446 23.6154h14.2293c-.0226-.8015-.2063-1.59-.54-2.3179-.3337-.7279-.8105-1.38-1.4014-1.9168-1.2042-1.1392-2.9491-1.7088-5.2101-1.7088-2.0643 0-3.7355.5944-4.9889 1.783-1.2533 1.1887-1.966 2.5854-2.0889 4.1605zm14.9912 6.9835l5.8242 1.7088c-.835 2.4517-2.3836 4.4824-4.6692 6.092-2.2855 1.6097-5.0871 2.4022-8.4294 2.4022-4.1287 0-7.6185-1.3125-10.4938-3.9128-2.8754-2.6003-4.3254-6.092-4.3254-10.4754 0-4.1108 1.4009-7.5036 4.2025-10.1286 2.6559-2.5816 6.2141-4.0051 9.904-3.9623 4.4482 0 7.9134 1.263 10.4201 3.7642 2.5072 2.5012 3.7572 5.8939 3.7572 10.1633 0 1.1392-.049 1.8078-.172 2.0307H81.3701c.0266.9582.2551 1.8998.6703 2.7622.4152.8625 1.0077 1.6261 1.7381 2.2402 1.5307 1.3204 3.4906 2.0257 5.505 1.9812 3.7134.0148 6.1464-1.5453 7.2523-4.6657zM110.569 40.9009h-6.488V0h6.537v16.4683c.688-1.1391 1.818-2.1049 3.391-2.8726 1.689-.8031 3.54-1.2015 5.407-1.164 4.055 0 7.225 1.3126 9.511 3.9624 2.285 2.6497 3.416 6.0177 3.416 10.1286 0 4.1852-1.205 7.6027-3.588 10.302-2.384 2.6993-5.579 4.0118-9.56 4.0118-3.982 0-6.857-1.4115-8.626-4.2594v4.3238zm12.951-8.0979c1.401-1.5354 2.089-3.6156 2.089-6.2407 0-2.625-.688-4.6804-2.065-6.1911-1.376-1.5106-3.194-2.2535-5.455-2.2535-2.188 0-3.982.7429-5.407 2.2535-1.425 1.5107-2.113 3.5661-2.113 6.1911 0 2.6251.712 4.6557 2.113 6.2159s3.219 2.3279 5.407 2.3279c2.236 0 4.03-.7677 5.431-2.3031zM170.14 40.8762h-27.967v-5.5968l17.67-17.236h-17.965v-5.6463h28.213v5.4333L152.2 35.215h17.94v5.6711-.0099z" fill="#000"/>
  <path d="M173.26 39.6905c-.424-.4142-.759-.9107-.984-1.459-.225-.5483-.336-1.1369-.325-1.7295-.011-.5962.099-1.1884.324-1.7406.226-.5523.561-1.053.985-1.4718.409-.4334.904-.7761 1.454-1.0056.549-.2296 1.141-.341 1.737-.3269 1.206.0012 2.362.4805 3.214 1.3325.853.8521 1.333 2.0074 1.334 3.2124.014.5952-.098 1.1867-.327 1.7361-.23.5493-.573 1.0442-1.007 1.4524-.42.4227-.921.7564-1.474.9813-.552.2248-1.144.3362-1.74.3275-.593.0107-1.182-.0998-1.731-.3249-.548-.2251-1.045-.5599-1.46-.9839z" fill="#BFBFBF"/>
</svg>