<svg width="109" height="25" fill="none" xmlns="http://www.w3.org/2000/svg">
  <path d="M84.4043 24.9396H80.586V7.55919h3.8183V24.9396zM8.28785 11.1229c-.59035-.0082-1.17584.1098-1.71878.3465-.54293.2366-1.03127.5867-1.43356 1.0276-.85839.906-1.28758 2.1593-1.28758 3.7448 0 1.5856.42919 2.8691 1.30238 3.7902.40849.4462.90389.8002 1.45442 1.0395.55052.2392 1.144.3583 1.74232.3497 1.12478 0 2.02755-.3171 2.70835-.9362.6329-.5631 1.0993-1.2952 1.3468-2.114l3.3743 1.2533c-.444 1.4647-1.3024 2.7332-2.5751 3.7902C11.9286 24.4715 10.3154 25 8.34705 25c-2.36796 0-4.35112-.8305-5.94949-2.5066C.799185 20.8172 0 18.7334 0 16.2418c0-2.5217.784386-4.6055 2.36796-6.25146 1.58357-1.64593 3.53713-2.47645 5.89029-2.47645 2.01275 0 3.65555.52851 4.92835 1.58553 1.2067.96758 2.0738 2.30798 2.4715 3.82038l-3.4483 1.2835c-.2071-.8361-.6495-1.592-1.2728-2.1744-.6497-.604-1.52289-.906-2.64915-.906zM22.1123 19.9867c.4255.4393.9319.7883 1.4902 1.027.5583.2387 1.1573.3623 1.7626.3637.6053.0014 1.2049-.1194 1.7643-.3555.5593-.2361 1.0673-.5828 1.4948-1.0201.8879-.9211 1.3319-2.1895 1.3319-3.8355 0-1.6157-.444-2.869-1.3319-3.775-.8688-.871-2.038-1.359-3.256-1.359-1.2179 0-2.3872.488-3.2559 1.359-.888.906-1.332 2.1593-1.332 3.775 0 1.6158.444 2.8993 1.332 3.8204zm3.2559-12.47281c2.4716 0 4.5139.81542 6.1123 2.44625 1.5984 1.63086 2.4124 3.69956 2.4124 6.22126 0 2.5218-.7992 4.5905-2.4124 6.2365-1.6132 1.6459-3.6407 2.4613-6.1123 2.4613-2.4419 0-4.4695-.8154-6.0827-2.4613-1.6131-1.646-2.4123-3.7298-2.4123-6.2365 0-2.5066.7992-4.5753 2.4123-6.22126 1.6132-1.64593 3.626-2.44625 6.0827-2.44625zM43.8531 7.61959V11.591c-.4164-.0652-.8368-.1005-1.258-.1057-2.9007 0-4.3363 1.4496-4.3363 4.6659v8.728h-3.8479V7.55919h3.7443v2.77841c.3681-.87449 1.0077-1.60136 1.8203-2.06869.8668-.51295 1.8546-.77405 2.8564-.75502.3432-.003.6856.03245 1.0212.1057zM49.107 14.3996h8.569c-.0136-.4887-.1242-.9695-.3252-1.4133-.201-.4438-.4881-.8415-.844-1.1688-.7251-.6946-1.7759-1.0419-3.1375-1.0419-1.2432 0-2.2496.3624-3.0043 1.0872-.7548.7248-1.184 1.5764-1.258 2.5368zm9.0278 4.2583l3.5076 1.0419c-.5032 1.4949-1.4356 2.7332-2.812 3.7147-1.3764.9815-3.0635 1.4647-5.0763 1.4647-2.4864 0-4.5879-.8003-6.3195-2.3858-1.7316-1.5856-2.6047-3.7147-2.6047-6.3875 0-2.5066.8435-4.5753 2.5307-6.17596 1.5994-1.57416 3.7422-2.44216 5.9643-2.41605 2.6788 0 4.7655.77012 6.2751 2.29525 1.5096 1.52516 2.2629 3.59386 2.2629 6.19716 0 .6946-.0296 1.1023-.1036 1.2382H49.0019c.016.5843.1536 1.1584.4036 1.6843.2501.5259.6069.9915 1.0468 1.366.9217.8051 2.102 1.2352 3.3151 1.208 2.2363.009 3.7014-.9423 4.3674-2.8449zM66.5855 24.9396h-3.9072V0h3.9368v10.0417c.4143-.69464 1.0951-1.28355 2.0423-1.75165 1.0171-.4897 2.1315-.73261 3.256-.70972 2.4419 0 4.3511.80032 5.7275 2.41605 1.3763 1.61572 2.0571 3.66932 2.0571 6.17602 0 2.5519-.7252 4.6358-2.1607 6.2817-1.4356 1.6459-3.3596 2.4462-5.7571 2.4462-2.3976 0-4.1292-.8607-5.1947-2.5972v2.6365zm7.7994-4.9378c.8436-.9362 1.258-2.2046 1.258-3.8053 0-1.6006-.4144-2.8539-1.2432-3.775-.8288-.9211-1.9239-1.3741-3.2855-1.3741-1.3172 0-2.3976.453-3.256 1.3741-.8583.9211-1.2727 2.1744-1.2727 3.775 0 1.6007.4292 2.8389 1.2727 3.7902.8436.9513 1.9388 1.4194 3.256 1.4194 1.3468 0 2.4271-.4681 3.2707-1.4043zM102.46 24.9245H85.6179v-3.4127l10.641-10.5097H85.4403V7.55919H102.43v3.31301L91.6562 21.4726H102.46v3.4579-.006z" fill="#fff"/>
  <path d="M104.339 24.2015c-.255-.2525-.457-.5553-.593-.8896-.135-.3344-.202-.6932-.196-1.0546-.006-.3635.06-.7246.196-1.0613.136-.3368.337-.6421.593-.8975.246-.2642.544-.4732.875-.6132.331-.1399.688-.2079 1.047-.1993.726.0008 1.422.293 1.935.8126.514.5195.803 1.2239.803 1.9587.009.3629-.058.7236-.197 1.0586-.138.335-.344.6367-.606.8856-.253.2578-.555.4613-.887.5984-.333.1371-.689.205-1.048.1997-.358.0065-.712-.0609-1.043-.1981-.33-.1373-.629-.3414-.879-.6z" fill="#BFBFBF"/>
</svg>