<svg width="18" height="18" fill="none" xmlns="http://www.w3.org/2000/svg">
  <g clip-path="url(#clip0)">
    <path d="M12.021 2.05969c-2.74591-2.745927-7.2151-2.745927-9.96103 0-2.745325 2.74652-2.745325 7.21512 0 9.96161 2.44532 2.4447 6.25378 2.7067 8.99793.7977.0577.2732.1899.5339.4024.7464l3.9989 3.999c.5828.5815 1.5245.5815 2.1043 0 .5821-.5822.5821-1.5239 0-2.1043l-3.999-4.0001c-.2113-.2107-.4726-.3435-.7458-.4012 1.9101-2.74474 1.6482-6.5526-.7977-8.99911zm-1.2625 8.69911c-2.0501 2.0501-5.38651 2.0501-7.43599 0-2.04887-2.05008-2.04887-5.38591 0-7.43598 2.04948-2.04947 5.38589-2.04947 7.43599 0 2.05 2.05007 2.05 5.3859 0 7.43598z" fill="#000"/>
  </g>
  <defs>
    <clipPath id="clip0">
      <path fill="#fff" d="M0 0h18v18H0z"/>
    </clipPath>
  </defs>
</svg>