<svg width="18" height="18" fill="none" xmlns="http://www.w3.org/2000/svg">
  <g clip-path="url(#clip0)" fill="#000">
    <path d="M8.87173 8.67069c1.19117 0 2.22257-.42723 3.06547-1.27016.8426-.84279 1.27-1.87399 1.27-3.06532 0-1.19092-.4272-2.22226-1.2701-3.06533C11.0941.427231 10.0628 0 8.87173 0 7.6804 0 6.6492.427231 5.80641 1.27002c-.84279.84279-1.27016 1.87413-1.27016 3.06519 0 1.19133.42737 2.22267 1.27016 3.06546.84307.84265 1.87441 1.27002 3.06532 1.27002zM6.55238 2.01585c.64669-.64668 1.40529-.96102 2.31935-.96102.91393 0 1.67267.31434 2.31947.96102.6467.64682.9612 1.40557.9612 2.31936 0 .91406-.3145 1.67266-.9612 2.31949-.6468.64682-1.40554.96116-2.31947.96116-.91378 0-1.67239-.31448-2.31935-.96116-.64682-.64669-.9613-1.40543-.9613-2.31949 0-.91379.31448-1.67254.9613-2.31936zM16.4577 13.8412c-.0243-.3508-.0735-.7334-.1459-1.1374-.073-.407-.1671-.7918-.2797-1.1435-.1165-.3635-.2745-.7225-.4702-1.0665-.2029-.3571-.4413-.66799-.7088-.92384-.2797-.26765-.6222-.48285-1.0183-.63981-.3947-.15615-.8321-.23525-1.2999-.23525-.1838 0-.3615.07539-.7047.29883-.2112.13774-.4582.29704-.734.47324-.2358.15023-.5552.291-.9498.41844-.38491.12459-.77575.18769-1.16164.18769-.38562 0-.77646-.0631-1.16167-.18769-.39413-.12731-.7137-.26807-.94908-.41831-.27315-.17454-.52034-.33384-.73471-.47351-.34291-.22343-.52062-.29883-.70436-.29883-.46802 0-.90528.07924-1.29982.23552-.39579.1567-.73842.37189-1.01844.63982-.26751.25598-.50592.5668-.70861.9237-.19542.344-.35363.7028-.47008 1.0666-.11247.3517-.20654.7364-.2796 1.1434-.07251.4035-.12154.7862-.14585 1.1378-.02389.3437-.03598.7015-.03598 1.0629 0 .9396.29869 1.7003.8877 2.2613.58172.5536 1.35132.8343 2.28749.8343h8.66715c.9359 0 1.7055-.2807 2.2873-.8343.5892-.5606.8879-1.3215.8879-2.2614-.0002-.3627-.0124-.7205-.0364-1.0632zm-1.5788 2.5603c-.3844.3659-.8947.5437-1.5602.5437H4.65175c-.66564 0-1.17595-.1778-1.5602-.5435-.37697-.3589-.56016-.8487-.56016-1.4972 0-.3373.01112-.6703.03337-.99.0217-.3136.06605-.6582.13183-1.0243.06496-.3616.14763-.701.24596-1.0082.09435-.2945.22302-.5862.3826-.8672.1523-.2678.32753-.4975.52089-.6827.18086-.1731.40883-.3149.67744-.42115.24843-.09833.52762-.15216.83071-.16026.03694.01964.10272.05713.20929.12662.21684.14129.46678.30249.74309.47899.31146.1986.71273.3779 1.19215.5327.49013.1585.99001.239 1.48618.239.49617 0 .99618-.0805 1.486-.2389.4799-.155.881-.3342 1.1929-.5331.2827-.1807.5257-.3372.7425-.47869.1066-.06936.1724-.10698.2093-.12662.3032.0081.5824.06193.831.16026.2685.10625.4964.24815.6773.42115.1933.185.3686.4148.5209.6828.1597.2809.2885.5727.3827.867.0985.3076.1813.6468.2461 1.0081.0657.3668.1101.7115.1318 1.0246v.0003c.0224.3185.0337.6514.0338.9896-.0001.6486-.1833 1.1383-.5603 1.497z"/>
  </g>
  <defs>
    <clipPath id="clip0">
      <path fill="#fff" d="M0 0h18v18H0z"/>
    </clipPath>
  </defs>
</svg>