<svg width="49" height="17" fill="none" xmlns="http://www.w3.org/2000/svg">
  <path d="M34.8284 6.36509h-1.7175v5.80621c0 .1087-.0945.2018-.2048.2018h-1.3236c-.1103 0-.2049-.0931-.2049-.2018V6.36509h-1.7332c-.0473 0-.1103-.01552-.1418-.04657-.0316-.03105-.0631-.07763-.0631-.13972V5.15417c0-.04657.0158-.10867.0631-.13972.0315-.03105.0945-.0621.1418-.04657h5.184c.1103 0 .2049.07762.2049.18629V6.1788c0 .10867-.0946.18629-.2049.18629zM40.3434 12.3266c-.6776.0931-1.3709.1397-2.0484.1242-1.3079 0-2.4581-.3261-2.4581-2.1424V7.00161c0-1.81638 1.166-2.12687 2.4738-2.12687.6776-.01553 1.3551.03105 2.0327.1242.1418.01552.2048.07762.2048.20182v.93147c0 .10867-.0945.20182-.2048.20182h-2.1272c-.4727 0-.6461.15525-.6461.68309v.90042h2.6945c.1103 0 .2048.09315.2048.20182v.94701c0 .10867-.0945.20182-.2048.20182h-2.6945v1.05569c0 .5123.1734.6831.6461.6831h2.1272c.1103 0 .2048.0931.2048.2018v.9315c0 .1086-.063.1707-.2048.1863zM47.9697 12.3731h-1.6072c-.1103.0156-.2206-.0465-.2678-.1552l-1.4024-2.1735-1.2606 2.1269c-.063.1242-.1418.2018-.2521.2018h-1.4969c-.0315 0-.0788 0-.1103-.031-.0315-.0311-.0473-.0621-.0473-.1087 0-.031.0158-.0466.0158-.0621l2.1902-3.6017-2.2217-3.41542c-.0158-.01552-.0158-.04657-.0158-.0621 0-.07762.0788-.13972.1576-.12419h1.6545c.1103 0 .1891.09314.2521.18629l1.2921 2.0182 1.2605-2.0182c.0473-.10867.1418-.17077.2521-.18629h1.4969c.0788 0 .1576.04657.1576.12419 0 .01553-.0157.04658-.0157.0621l-2.206 3.44647 2.3005 3.57065c.0158.0311.0315.0621.0315.0932-.0157.0621-.063.1086-.1576.1086zM27.0129 4.98342c-.0787 0-.1418.04657-.1575.12419L25.39 10.4636c-.0158.1087-.0473.1553-.1418.1553-.0946 0-.1261-.0466-.1419-.1553l-1.4654-5.35599c-.0157-.07762-.0787-.12419-.1575-.12419h-1.4497c-.0472 0-.0945.01552-.126.0621-.0315.03105-.0473.07762-.0315.12419 0 0 1.7963 6.14779 1.812 6.20989.2364.7296.8194 1.0867 1.56 1.0867.709.031 1.3551-.4192 1.5599-1.0867.0315-.0777 1.7805-6.20989 1.7805-6.20989.0158-.04657 0-.09314-.0315-.12419-.0315-.03105-.0788-.0621-.126-.0621h-1.4182zM18.8193 0H3.73988c-.5515 0-1.05572.294968-1.32359.745182-.28363.465738-.29938 1.040148-.04727 1.505888l1.51267 2.82548H1.13997c-.346649 0-.677546.17077-.866629.46574-.1890844.29497-.1890845.66756-.031515.97805L5.09498 15.5557c.17333.326.51998.5278.88239.5278s.70906-.2018.88239-.5278l1.32359-2.4529 1.65448 3.0894c.26787.4968.80357.8073 1.37087.8073.5672 0 1.103-.3105 1.3708-.8073l7.5634-14.01875c.2521-.46574.2364-1.02463-.0473-1.459318C19.8435.263918 19.3551 0 18.8193 0zm-6.744 5.91488L8.76636 12.0316c-.1103.2173-.3309.3415-.58301.3415s-.47271-.1397-.58301-.3415l-3.2617-6.05462c-.09454-.1863-.09454-.40364.01576-.58994.1103-.18629.31514-.29497.51998-.29497h6.68092c.2049 0 .394.09315.4885.26392.1261.17077.1261.38812.0315.55889z" fill="#fff"/>
</svg>